<?xml version="1.0" encoding="UTF-8"?>
<!-- Generator: Adobe Illustrator 24.2.3, SVG Export Plug-In . SVG Version: 6.00 Build 0)  -->
<svg xmlns="http://www.w3.org/2000/svg" xmlns:xlink="http://www.w3.org/1999/xlink" version="1.1" id="Capa_1" x="0px" y="0px" viewBox="0 0 164.2 39.1" style="enable-background:new 0 0 164.2 39.1;" xml:space="preserve">
<style type="text/css">
	.st0{fill:#F0F1EC;}
</style>
<g>
	<g>
		<g>
			<path class="st0" d="M101.4,26.5h-0.6v-5.4h0.6V26.5z"></path>
		</g>
	</g>
	<g>
		<g>
			<path class="st0" d="M105.8,20.9h3.6h0.4c0,0,0.1,0,0.1,0c0,0,0.1,0,0.1,0c0,0,0,0,0.1,0c0,0,0,0,0.1,0c0,0,0,0,0.1,0     c0,0,0.1,0,0.1,0c0.1,0,0.2,0,0.3,0c0.1,0,0.2,0,0.3,0c0.1,0,0.2,0,0.3,0.1c0.1,0,0.2,0.1,0.3,0.1c0.1,0.1,0.2,0.2,0.3,0.2     c0.1,0.1,0.2,0.2,0.2,0.3c0,0.1,0.1,0.2,0.1,0.3c0,0.1,0.1,0.2,0.1,0.3c0,0,0,0.1,0,0.1c0,0,0,0.1,0,0.1c0,0,0,0,0,0c0,0,0,0,0,0     c0,0,0,0,0,0c0,0,0,0,0,0c0,0,0,0,0,0.1c0,0,0,0,0,0.1c0,0,0,0,0,0.1c0,0,0,0,0,0.1s0,0,0,0.1s0,0,0,0.1c0,0,0,0,0,0.1s0,0,0,0.1     c0,0.1,0,0.2-0.1,0.2c0,0.1-0.1,0.2-0.1,0.2c0,0.1-0.1,0.1-0.1,0.2c-0.1,0.1-0.1,0.1-0.2,0.2c-0.1,0.1-0.3,0.2-0.4,0.2     c-0.2,0.1-0.3,0.1-0.5,0.1c-0.2,0-0.3,0-0.5,0s-0.4,0-0.5,0c0,0,0,0,0,0h0c0,0,0,0-0.1,0c0,0,0,0-0.1,0c0,0,0,0-0.1,0     c0,0,0,0-0.1,0c0,0-0.1,0-0.1,0c0,0-0.1,0-0.1,0l-2.5,0v2.2h-0.9V20.9z M109,23.8c0.4,0,0.7,0,1,0c0.3,0,0.5-0.1,0.7-0.1     c0.2-0.1,0.3-0.2,0.4-0.3c0.1-0.2,0.1-0.4,0.1-0.6c0-0.2,0-0.4-0.1-0.5c0-0.1-0.1-0.3-0.2-0.4c-0.1-0.1-0.2-0.2-0.4-0.2     c-0.2-0.1-0.5-0.1-0.8-0.1c0,0,0,0-0.1,0c0,0,0,0-0.1,0c0,0,0,0-0.1,0s0,0-0.1,0c0,0,0,0-0.1,0s0,0-0.1,0c0,0,0,0-0.1,0     c0,0,0,0-0.1,0l-2.6,0v2.3H109z"></path>
		</g>
	</g>
	<g>
		<g>
			<path class="st0" d="M116.1,23.6c0-0.4,0-0.7,0.1-1s0.2-0.6,0.3-0.8c0.1-0.2,0.4-0.4,0.8-0.6c0.4-0.1,1-0.2,1.8-0.2l0.4,0     c0.6,0,1.2,0,1.6,0.1c0.5,0,0.8,0.1,1.2,0.2c0.3,0.1,0.6,0.3,0.7,0.5c0.2,0.3,0.2,0.6,0.2,1.1c0,0.1,0,0.2,0,0.3     c0,0.1,0,0.2,0,0.2c0,0.1,0,0.2,0,0.3s0,0.2,0,0.3c0,0.2,0,0.3,0,0.5c0,0.2,0,0.3,0,0.5c0,0.3-0.1,0.6-0.2,0.9     c-0.1,0.2-0.3,0.4-0.5,0.6c-0.2,0.1-0.5,0.2-0.9,0.3c-0.4,0.1-0.9,0.1-1.4,0.1c0,0,0,0-0.1,0c0,0,0,0-0.1,0c0,0,0,0,0,0     c0,0,0,0,0,0s0,0,0,0c0,0,0,0-0.1,0s0,0-0.1,0c0,0,0,0,0,0c0,0,0,0,0,0c0,0,0,0,0,0c0,0-0.1,0-0.1,0s-0.1,0-0.1,0     c0,0-0.1,0-0.1,0s-0.1,0-0.1,0c-0.5,0-1,0-1.4-0.1c-0.4,0-0.7-0.1-1-0.2c-0.3-0.1-0.5-0.3-0.6-0.5c-0.1-0.2-0.2-0.5-0.3-0.9     c0-0.1,0-0.2,0-0.3c0-0.1,0-0.2,0-0.3c0,0,0-0.1,0-0.1c0,0,0-0.1,0-0.1c0,0,0-0.1,0-0.1c0,0,0-0.1,0-0.1v0V23.6z M117.2,24.8     c0,0.3,0,0.5,0.1,0.7c0.1,0.2,0.2,0.3,0.3,0.4c0.1,0.1,0.3,0.2,0.6,0.2c0.3,0,0.7,0.1,1.1,0.1c0.5,0,0.9,0,1.3,0     c0.4,0,0.7-0.1,0.9-0.1c0.2-0.1,0.4-0.2,0.5-0.4c0.1-0.2,0.2-0.5,0.2-0.8c0-0.1,0-0.2,0-0.2c0-0.1,0-0.2,0-0.2c0,0,0-0.1,0-0.1     c0,0,0-0.1,0-0.1c0,0,0-0.1,0-0.1c0,0,0-0.1,0-0.1c0,0,0-0.1,0-0.1c0,0,0-0.1,0-0.1c0,0,0-0.1,0-0.1s0-0.1,0-0.1c0,0,0-0.1,0-0.1     c0,0,0-0.1,0-0.1c0,0,0-0.1,0-0.1c0,0,0-0.1,0-0.1c0-0.3-0.1-0.6-0.2-0.8c-0.1-0.2-0.3-0.3-0.4-0.4c-0.2-0.1-0.5-0.1-0.8-0.1     c-0.3,0-0.8,0-1.2,0l-0.3,0c-0.4,0-0.7,0-1,0.1s-0.5,0.1-0.6,0.2c-0.1,0.1-0.2,0.2-0.3,0.4c-0.1,0.2-0.1,0.4-0.1,0.7l0,1     L117.2,24.8z"></path>
		</g>
	</g>
	<g>
		<g>
			<path class="st0" d="M128.3,26h4.4v0.6h-5.1v-5.6h0.7L128.3,26z"></path>
		</g>
	</g>
	<g>
		<g>
			<path class="st0" d="M137.3,26h4.4v0.6h-5.1V21h0.7L137.3,26z"></path>
		</g>
	</g>
	<g>
		<g>
			<path class="st0" d="M146.1,23.4h4.8v0.5h-4.8l0,2.1l5,0v0.5h-5.7V21h5.7v0.6l-4.9,0V23.4z M149.3,20.3l-0.3,0.3l-1.9-0.7     l0.5-0.4L149.3,20.3z"></path>
		</g>
	</g>
	<g>
		<g>
			<path class="st0" d="M160.7,22.4c0-0.2-0.1-0.4-0.1-0.5c-0.1-0.1-0.1-0.2-0.3-0.3c-0.1-0.1-0.3-0.1-0.5-0.2     c-0.2,0-0.5-0.1-0.8-0.1l-0.5,0c-0.1,0-0.1,0-0.2,0c-0.1,0-0.1,0-0.2,0c0,0-0.1,0-0.1,0c0,0-0.1,0-0.1,0c0,0-0.1,0-0.1,0     c0,0-0.1,0-0.1,0c-0.1,0-0.2,0-0.3,0c-0.1,0-0.2,0-0.3,0c-0.1,0-0.2,0-0.2,0c-0.1,0-0.1,0-0.2,0.1c-0.1,0-0.1,0.1-0.2,0.1     c-0.1,0-0.1,0.1-0.1,0.1c0,0,0,0,0,0.1c0,0,0,0.1,0,0.1c0,0,0,0.1,0,0.1c0,0,0,0,0,0.1c0,0,0,0,0,0.1c0,0,0,0,0,0.1     c0,0,0,0,0,0.1s0,0,0,0.1c0,0.2,0,0.3,0.1,0.4c0,0.1,0.1,0.2,0.2,0.3c0.1,0.1,0.2,0.1,0.4,0.2c0.2,0,0.4,0.1,0.7,0.1     c0,0,0.1,0,0.1,0c0,0,0.1,0,0.2,0c0,0,0.1,0,0.1,0c0,0,0.1,0,0.1,0c0.1,0,0.2,0,0.3,0c0.1,0,0.2,0,0.3,0c0.4,0,0.8,0,1.2,0.1     c0.4,0,0.7,0.1,1,0.2c0.3,0.1,0.5,0.2,0.7,0.4c0.2,0.2,0.2,0.5,0.2,0.9c0,0.2,0,0.4-0.1,0.6c-0.1,0.2-0.1,0.4-0.2,0.5     c-0.1,0.2-0.3,0.3-0.5,0.4s-0.6,0.1-1,0.2c0,0-0.1,0-0.1,0s-0.1,0-0.1,0c0,0-0.1,0-0.1,0c0,0-0.1,0-0.1,0c-0.1,0-0.1,0-0.2,0     c-0.1,0-0.1,0-0.2,0c0,0-0.1,0-0.1,0c0,0-0.1,0-0.1,0c0,0-0.1,0-0.1,0s-0.1,0-0.1,0c-0.1,0-0.1,0-0.2,0c-0.1,0-0.1,0-0.2,0     c-0.5,0-0.9,0-1.3-0.1c-0.4,0-0.7-0.1-1-0.2c-0.3-0.1-0.5-0.2-0.7-0.4c-0.2-0.2-0.2-0.5-0.2-0.9c0,0,0,0,0,0c0,0,0,0,0,0     c0,0,0,0,0,0c0,0,0,0,0,0c0,0,0,0,0,0c0,0,0,0,0,0c0,0,0,0,0,0c0,0,0,0,0,0c0,0,0,0,0,0c0,0,0,0,0,0l1,0c0,0.3,0,0.5,0.1,0.7     c0.1,0.2,0.1,0.3,0.3,0.4c0.1,0.1,0.3,0.1,0.6,0.2c0.3,0,0.6,0.1,1,0.1l0.8,0c0,0,0.1,0,0.1,0c0,0,0.1,0,0.1,0c0.3,0,0.6,0,0.8,0     c0.2,0,0.4-0.1,0.5-0.1c0.1-0.1,0.2-0.2,0.3-0.3c0.1-0.1,0.1-0.3,0.1-0.6c0-0.2,0-0.3-0.1-0.5c0-0.1-0.1-0.2-0.2-0.3     c-0.1-0.1-0.2-0.1-0.4-0.1s-0.4-0.1-0.7-0.1c0,0-0.1,0-0.1,0s-0.1,0-0.1,0c0,0-0.1,0-0.1,0c0,0-0.1,0-0.1,0c0,0-0.1,0-0.1,0     c0,0-0.1,0-0.1,0c0,0-0.1,0-0.1,0c0,0-0.1,0-0.1,0c-0.5,0-0.9,0-1.3-0.1c-0.4,0-0.8-0.1-1.1-0.2c-0.3-0.1-0.6-0.2-0.8-0.4     c-0.2-0.2-0.3-0.5-0.3-0.9c0-0.3,0.1-0.6,0.2-0.8c0.1-0.2,0.3-0.4,0.6-0.5c0.3-0.1,0.6-0.1,1-0.2c0.4,0,0.8-0.1,1.2-0.1l0.2,0     c0.5,0,0.9,0,1.3,0.1c0.4,0,0.7,0.1,1,0.2c0.3,0.1,0.5,0.2,0.7,0.4c0.2,0.2,0.2,0.5,0.2,0.9v0.1H160.7z"></path>
		</g>
	</g>
	<g>
		<path class="st0" d="M27.1,18.3V1.2H7.4c0,0-5,0.5-5.6,5.8v19.6h25.4v-2.3c0,0-2.9-0.2-5.5-1.9l0.2,0.6l-0.1,0.4l-0.5,0.2    l-2.4,0.1l-0.6,0.5c0,0-0.6,0.2-0.6-0.2l0-1.1l-0.3,0l-1,1l-0.5,0.1l-0.6-0.1c0,0-0.1-0.2,0.1-0.3c0.2-0.1,0.4-0.4,0.4-0.4    l-0.1-0.4L15,22.8l-0.9,0.4l-0.4,0.3c0,0-0.7-0.1-0.4-0.8l0.4-0.7l-0.1-0.3l-1.1-0.1l-0.4,0c0,0-0.4,0-0.2-0.6l1-0.5    c0,0,0.1-0.2-0.2-0.2l-0.6,0c0,0-0.3-0.6,0.2-0.8h1.5c0,0,0.3-0.1-0.1-0.3c0,0-0.9-0.1-1.5-0.3c0,0,0.1,0.1-0.5-0.4l4.3,0.2    c0,0,0.3,0.1-0.1-0.4c0,0-3.8-1.6-5.2-2.9l-0.3-0.2H9.3c0,0-0.5-1-0.8-2c0,0-0.5,0-0.6-0.2c-0.1-0.2-0.1-0.6-0.1-0.6l0.1-0.3    c0,0,0-0.1-0.4-0.2S7,11.9,7.1,11.6l0.3-0.2c0,0,0.3-0.1,0-0.3c0,0-1-0.3-1.7-1.1l0-0.3l0.8,0L4.4,9.5c0,0,0-0.3,0.2-0.4    c0.2-0.1,2.3-0.1,2.3-0.1s0.3,0,0.3-0.1c0-0.1-3-0.4-3.3-0.6l4.2,0c0,0-2.4-0.8-3-1.4c0,0,1.8,0.8,4.3,1.1L5.8,5.7l4.8,2.2    L6.7,4.5c0,0,1.7,0.8,3,1.8c0,0,1.4,1.3,1.5,1.3S8.3,3.5,8.3,3.5L12,7.4l-1.8-3.8c0,0,1.2,0.9,2.7,3.1c0,0,0.5,1.5,4,4.8l6.7,4.6    l2.6,0.2c0,0,0.5,0.2,0.2,0.5l-0.6,0.4L27.1,18.3z"></path>
	</g>
	<g>
		<path class="st0" d="M54.8,3V1.2H35.3c0,0-4.5,0.3-5.7,5.6v19.8l25.3,0V9.8l-0.3-0.5l-1.4-2.2l-0.3-0.5l-0.2,0.7V11l0,2.3l0.1,0.5    c0,0,0.9,0.3,1.4,1.2l-0.3,9.3c0,0-0.7,1-1.5,1c0,0-0.7-0.2-1-1l-0.5-8.3l1.4-2.3l0-7.2l0.3-1.2l-0.3,0c0,0-1.9,0.4-4.1,6L48,12.7    l1.7,2.6l0.2,0.8l0.1,0.7l0,1.4l-0.2,0.9c0,0-0.7-0.2-0.9,0.2c-0.2,0.4-0.5,1.4-0.5,1.4l-0.1,0.3l-0.6-0.2l-1.2,1.7l-0.2-0.3    l-1.1,1.4L45,24.1h-0.6l0,0.8h-0.4c0,0-0.1,0.2-0.4,1.2l-0.2-1.9h-0.4l0.1-1.4l-0.4,0l0-1.1l-0.4-0.1c0,0,0.4-1.1-0.4-1.6l0-1.9    h-0.7c0,0,0.4-0.8,0.2-3c0,0,0-0.7,0.4-1.1c0,0,0.6-1.4,3.9-2.1l1.8-0.9c0,0,0.8-2.7,3.6-5.7l0.4-0.4c0,0-1.9-0.9-3.6,0.1    l-0.3,0.2l0.1,3.3l-0.4,0v1c0,0-0.6,0.8-0.7,0.8c-0.1,0-1-0.1-1-0.1s-1.5,1.2-2.3,1.1l-0.1-0.3c0,0-1.5,0.2-2.1,0.8l-0.2-0.3    c0,0-1.6,0.1-2,0.7c0,0-1.2,0-5.6,2.4c0,0,0.6-2.2,2.1-3.3c0,0-0.4,0-0.5-0.6c0,0,0.6-2.2,1.6-2.9l-0.2-0.3l-0.4-0.1l1.1-1    c0,0,0.2-0.2-0.1-0.8L39.3,4l-0.3-0.6c0,0-0.1-0.1,0.3-0.3l0.9,0V2.7c0,0,1-0.6,2.5-0.2L47.8,4c0,0,2.4-0.2,4.3,0.3L54.8,3z"></path>
	</g>
	<g>
		<path class="st0" d="M82.7,8.5V1.2H63c0,0-4.6,0.6-5.6,5.2l-0.1,20.2l25.3,0.1v-9.1c0,0-1.6,0.4-1.6,0.8c0.1,0.4,0.1,0.5,0.4,0.7    s0.6,0,0.6,0l0.2,0.2v0.3l-0.6,0.3l-0.6,0.1l-0.4,0L80.5,20l0.4,0.6l0.2,0.3l0.2,0.3l0.2,0.4v0.4v0.3l-0.2,0.4l-0.5,0.1L80.1,23    l-0.5,0.1L79.3,23L78.9,23l-0.2-0.4h-0.6h-0.4l-0.1,0.2l0.4,0.2l0.4,0.2c0,0,0,0.2,0,0.3c0,0.1,0,0.1,0,0.1l-0.1,0.4l-0.3,0.3    l-0.4-0.1l-0.4-0.1l-0.4,0.2l-0.4-0.1l-0.6-0.3h-0.4L75,24.2l-0.4,0.4l0.1,0.4l-0.3,0.1h-0.3l-0.4,0.1l-0.2-0.3v-0.3l-0.4-0.1    l-0.5,0l-0.4,0h-0.3l-0.4,0.1l-0.1,0.4l-0.1,0.3L71,25.6l-0.4,0.1l-0.4-0.2l-0.5-0.3l-0.1-0.6l-0.1-0.3l0-0.3h-0.3h-0.4l-0.7,0.2    l-0.3,0.1l-0.4,0.1l-0.3-0.4h-0.5l-0.1-0.3l-0.3-0.1L66,23.6l-0.4,0.2l0.1,0.3l0.1,0.3l0.3,0l0.4,0.1v0.4L66,25.2l-0.3,0.1    c0,0,0,0.2,0,0.3c0,0.1-0.4,0.3-0.4,0.3L65,25.8l-0.3-0.3l0.1-0.5l0.1-0.3l0.3,0l0.5-0.3l-0.1-0.6L65,24.1l-0.1-0.6l-0.2-0.4    l-0.2-0.5l-0.2-0.4l-0.1-0.4c0,0-0.1-0.1-0.3-0.1c-0.1,0-0.1,0-0.1,0l-0.3-0.1l-0.1-0.6l0.1-0.5l0.5,0l0.4,0.3h0.4h0.4l0.1,0.3    L65,21.5c0,0-0.2,0.3-0.2,0.4c0,0.1,0.1,0.4,0.1,0.4l0.1,0.3l0.5,0.1l0.4-0.1l0.1-0.3l0.2-0.4l0.4-0.1l0.4,0.1l0.3,0.1l0.2-0.3    l0.1-0.6l-0.3-0.2l0.1-0.3V20v-0.4v-0.3l-0.5,0.1l-0.3,0.2h-0.3l-0.6-0.7l0.1-0.4l0.1-0.4l0.5-0.5v-0.5l0.1-0.3l0.4-0.4l-0.1-0.4    l0.4-0.1l0.3-0.3l0.3-0.3l0.2-0.3c0,0-0.3-0.1-0.4-0.1c-0.1,0,0-0.4-0.3-0.4s-0.7-0.1-0.7-0.1l-0.2-0.3L66.3,14h-0.9l-0.2,0.3    l-0.6,0.1L64,14.3L63.3,14l-0.3-0.5v-0.3l0.1-0.6c0.2-0.3,0.5-0.5,0.8-0.5s0.6,0.1,0.7,0.1c0.1,0-0.1-0.4-0.1-0.4    c0.4-0.2,0.7-0.4,0.8-0.3c0.1,0.1,0,0.2,0,0.2s0.6-0.1,0.6-0.2c0-0.1,0-0.3,0-0.3L66,11.1l0.3-0.1l0.4-0.1l0.6,0.1l0.6-0.1    c0,0,0.2-0.4,0.3-0.4c0.1,0,0.3,0,0.3,0H69l0.4-0.6L70,9.7c0,0,0.1-0.2,0.2-0.3c0.2-0.1,0.2-0.1,0.2-0.1l0.1-0.4l0.1-0.5l0.2-0.4    l0.2-0.3c0,0-0.1-0.3,0.1-0.3c0.2,0,0.9-0.1,0.9-0.1L72.1,7l0.5,0l0.5,0.3l0.4,0.1l0.7,0.2l0.3-0.1l0.3-0.1L75,7.2L75.3,7l0.4-0.1    L76,6.7l0.4-0.1l0.3-0.2l0.3,0l0.3,0l0.4,0.2l0.3,0.3l0.6,0.2c0,0,0.6,0,0.7,0.1c0.1,0,0.7,0,0.7,0L80,7.5l0.4,0.1l0.5,0.1    l0.1,0.4l0.4,0.2c0,0,0.3,0.1,0.4,0.1C81.9,8.3,82.7,8.5,82.7,8.5z"></path>
	</g>
	<g>
		<g>
			<path class="st0" d="M7.8,37c-0.3,0.1-0.8,0.2-1.5,0.2c-1.7,0-2.9-1-2.9-2.9c0-2,1.4-3,3.1-3c0.7,0,1.1,0.1,1.3,0.2l-0.2,0.6     c-0.3-0.1-0.6-0.2-1.1-0.2c-1.3,0-2.3,0.8-2.3,2.4c0,1.5,0.9,2.3,2.2,2.3c0.5,0,0.9-0.1,1.2-0.2L7.8,37z"></path>
		</g>
		<g>
			<path class="st0" d="M12.5,35c0,1.6-1.1,2.2-2.1,2.2c-1.2,0-2.1-0.8-2.1-2.1c0-1.4,1-2.2,2.1-2.2C11.6,32.9,12.5,33.7,12.5,35z      M9.1,35.1c0,0.8,0.5,1.6,1.3,1.6c0.8,0,1.2-0.8,1.2-1.6c0-0.7-0.3-1.6-1.2-1.6C9.5,33.4,9.1,34.3,9.1,35.1z"></path>
		</g>
		<g>
			<path class="st0" d="M13.5,34.1c0-0.5,0-0.8,0-1.1h0.7l0,0.6h0c0.2-0.4,0.7-0.7,1.4-0.7c0.7,0,1.5,0.4,1.5,1.7v2.6h-0.8v-2.5     c0-0.6-0.2-1.2-1-1.2c-0.5,0-0.9,0.3-1,0.7c0,0.1-0.1,0.2-0.1,0.4v2.5h-0.8V34.1z"></path>
		</g>
		<g>
			<path class="st0" d="M18.4,36.4c0.2,0.1,0.6,0.3,1,0.3c0.6,0,0.9-0.3,0.9-0.6c0-0.3-0.2-0.5-0.8-0.8c-0.8-0.3-1.2-0.7-1.2-1.2     c0-0.7,0.6-1.2,1.5-1.2c0.4,0,0.8,0.1,1.1,0.2l-0.2,0.5c-0.2-0.1-0.5-0.2-0.9-0.2c-0.5,0-0.7,0.3-0.7,0.6c0,0.3,0.2,0.5,0.8,0.7     C20.6,35,21,35.4,21,36c0,0.8-0.7,1.2-1.7,1.2c-0.5,0-0.9-0.1-1.2-0.3L18.4,36.4z"></path>
		</g>
		<g>
			<path class="st0" d="M25.9,35c0,1.6-1.1,2.2-2.1,2.2c-1.2,0-2.1-0.8-2.1-2.1c0-1.4,1-2.2,2.1-2.2C25.1,32.9,25.9,33.7,25.9,35z      M22.6,35.1c0,0.8,0.5,1.6,1.3,1.6c0.8,0,1.2-0.8,1.2-1.6c0-0.7-0.3-1.6-1.2-1.6C22.9,33.4,22.6,34.3,22.6,35.1z"></path>
		</g>
		<g>
			<path class="st0" d="M26.9,34.2c0-0.4,0-0.9,0-1.2h0.7l0,0.8h0c0.2-0.5,0.7-0.9,1.2-0.9c0.1,0,0.1,0,0.2,0v0.7     c-0.1,0-0.2,0-0.3,0c-0.6,0-1,0.4-1.1,0.9c0,0.1,0,0.2,0,0.4v2.2h-0.8V34.2z"></path>
		</g>
		<g>
			<path class="st0" d="M32.9,37c-0.2,0.1-0.6,0.2-1.2,0.2c-1.3,0-2.2-0.8-2.2-2.1c0-1.3,0.9-2.2,2.3-2.2c0.4,0,0.8,0.1,1,0.2     l-0.2,0.6c-0.2-0.1-0.5-0.2-0.9-0.2c-1,0-1.5,0.7-1.5,1.6c0,1,0.6,1.6,1.5,1.6c0.4,0,0.7-0.1,0.9-0.2L32.9,37z"></path>
		</g>
		<g>
			<path class="st0" d="M34.7,31.8c0,0.3-0.2,0.5-0.5,0.5c-0.3,0-0.5-0.2-0.5-0.5c0-0.3,0.2-0.5,0.5-0.5     C34.5,31.4,34.7,31.6,34.7,31.8z M33.8,37.1V33h0.8v4.2H33.8z"></path>
		</g>
		<g>
			<path class="st0" d="M38.3,35.2c0,1.1,0.7,1.5,1.5,1.5c0.5,0,0.9-0.1,1.2-0.2l0.1,0.5c-0.3,0.1-0.8,0.2-1.4,0.2     c-1.4,0-2.2-0.8-2.2-2.1c0-1.3,0.8-2.2,2-2.2c1.4,0,1.8,1.1,1.8,1.9c0,0.2,0,0.3,0,0.4H38.3z M40.6,34.6c0-0.6-0.3-1.2-1-1.2     c-0.8,0-1.1,0.7-1.2,1.2H40.6z"></path>
		</g>
		<g>
			<path class="st0" d="M42.2,36.4c0.2,0.1,0.6,0.3,1,0.3c0.6,0,0.9-0.3,0.9-0.6c0-0.3-0.2-0.5-0.8-0.8c-0.8-0.3-1.2-0.7-1.2-1.2     c0-0.7,0.6-1.2,1.5-1.2c0.4,0,0.8,0.1,1.1,0.2l-0.2,0.5c-0.2-0.1-0.5-0.2-0.9-0.2c-0.5,0-0.7,0.3-0.7,0.6c0,0.3,0.2,0.5,0.8,0.7     c0.7,0.3,1.2,0.6,1.2,1.3c0,0.8-0.7,1.2-1.7,1.2c-0.5,0-0.9-0.1-1.2-0.3L42.2,36.4z"></path>
		</g>
		<g>
			<path class="st0" d="M45.9,34.3c0-0.6,0-1,0-1.3h0.7l0,0.7h0c0.3-0.5,0.8-0.7,1.5-0.7c1.1,0,1.8,0.8,1.8,2.1c0,1.5-1,2.2-2,2.2     c-0.6,0-1-0.2-1.3-0.6h0v2.2h-0.8V34.3z M46.8,35.5c0,0.1,0,0.2,0,0.3c0.2,0.5,0.6,0.8,1.1,0.8c0.8,0,1.3-0.7,1.3-1.6     c0-0.8-0.4-1.6-1.2-1.6c-0.5,0-1,0.4-1.1,0.9c0,0.1,0,0.2,0,0.3V35.5z"></path>
		</g>
		<g>
			<path class="st0" d="M53.4,37.1l-0.1-0.5h0c-0.2,0.3-0.7,0.6-1.3,0.6c-0.9,0-1.4-0.6-1.4-1.2c0-1,1-1.5,2.6-1.5v-0.1     c0-0.4-0.1-1-1-1c-0.4,0-0.8,0.1-1.1,0.3L51,33.2c0.3-0.2,0.9-0.3,1.4-0.3c1.3,0,1.7,0.8,1.7,1.6v1.6c0,0.3,0,0.7,0.1,1H53.4z      M53.3,35c-0.8,0-1.8,0.1-1.8,0.9c0,0.5,0.4,0.7,0.7,0.7c0.5,0,0.9-0.3,1-0.7c0-0.1,0-0.2,0-0.2V35z"></path>
		</g>
		<g>
			<path class="st0" d="M56.3,31.8c0,0.3-0.2,0.5-0.5,0.5c-0.3,0-0.5-0.2-0.5-0.5c0-0.3,0.2-0.5,0.5-0.5     C56.1,31.4,56.3,31.6,56.3,31.8z M55.4,37.1V33h0.8v4.2H55.4z"></path>
		</g>
		<g>
			<path class="st0" d="M57.4,36.4c0.2,0.1,0.6,0.3,1,0.3c0.6,0,0.9-0.3,0.9-0.6c0-0.3-0.2-0.5-0.8-0.8c-0.8-0.3-1.2-0.7-1.2-1.2     c0-0.7,0.6-1.2,1.5-1.2c0.4,0,0.8,0.1,1.1,0.2l-0.2,0.5c-0.2-0.1-0.5-0.2-0.9-0.2c-0.5,0-0.7,0.3-0.7,0.6c0,0.3,0.2,0.5,0.8,0.7     c0.7,0.3,1.2,0.6,1.2,1.3c0,0.8-0.7,1.2-1.7,1.2c-0.5,0-0.9-0.1-1.2-0.3L57.4,36.4z"></path>
		</g>
		<g>
			<path class="st0" d="M64,31.8c0,0.3-0.2,0.5-0.5,0.5c-0.3,0-0.5-0.2-0.5-0.5c0-0.3,0.2-0.5,0.5-0.5C63.8,31.4,64,31.6,64,31.8z      M63.1,37.1V33h0.8v4.2H63.1z"></path>
		</g>
		<g>
			<path class="st0" d="M65.2,34.1c0-0.5,0-0.8,0-1.1h0.7l0,0.6h0c0.2-0.4,0.7-0.7,1.4-0.7c0.7,0,1.5,0.4,1.5,1.7v2.6h-0.8v-2.5     c0-0.6-0.2-1.2-1-1.2c-0.5,0-0.9,0.3-1,0.7c0,0.1-0.1,0.2-0.1,0.4v2.5h-0.8V34.1z"></path>
		</g>
		<g>
			<path class="st0" d="M71.2,31.8V33h1.1v0.6h-1.1v2.3c0,0.5,0.2,0.8,0.6,0.8c0.2,0,0.3,0,0.4,0l0,0.6c-0.2,0.1-0.4,0.1-0.7,0.1     c-0.4,0-0.7-0.1-0.9-0.3c-0.2-0.2-0.3-0.6-0.3-1.1v-2.3h-0.7V33h0.7v-1L71.2,31.8z"></path>
		</g>
		<g>
			<path class="st0" d="M73.6,35.2c0,1.1,0.7,1.5,1.5,1.5c0.5,0,0.9-0.1,1.2-0.2l0.1,0.5c-0.3,0.1-0.8,0.2-1.4,0.2     c-1.4,0-2.2-0.8-2.2-2.1c0-1.3,0.8-2.2,2-2.2c1.4,0,1.8,1.1,1.8,1.9c0,0.2,0,0.3,0,0.4H73.6z M75.8,34.6c0-0.6-0.3-1.2-1-1.2     c-0.8,0-1.1,0.7-1.2,1.2H75.8z"></path>
		</g>
		<g>
			<path class="st0" d="M77.6,34.2c0-0.4,0-0.9,0-1.2h0.7l0,0.8h0c0.2-0.5,0.7-0.9,1.2-0.9c0.1,0,0.1,0,0.2,0v0.7     c-0.1,0-0.2,0-0.3,0c-0.6,0-1,0.4-1.1,0.9c0,0.1,0,0.2,0,0.4v2.2h-0.8V34.2z"></path>
		</g>
		<g>
			<path class="st0" d="M81,35.2c0,1.1,0.7,1.5,1.5,1.5c0.5,0,0.9-0.1,1.2-0.2l0.1,0.5c-0.3,0.1-0.8,0.2-1.4,0.2     c-1.4,0-2.2-0.8-2.2-2.1c0-1.3,0.8-2.2,2-2.2c1.4,0,1.8,1.1,1.8,1.9c0,0.2,0,0.3,0,0.4H81z M81.9,31.2l0.8,1.2h-0.6L81,31.2H81.9     z M83.2,34.6c0-0.6-0.3-1.2-1-1.2c-0.8,0-1.1,0.7-1.2,1.2H83.2z"></path>
		</g>
		<g>
			<path class="st0" d="M84.9,36.4c0.2,0.1,0.6,0.3,1,0.3c0.6,0,0.9-0.3,0.9-0.6c0-0.3-0.2-0.5-0.8-0.8c-0.8-0.3-1.2-0.7-1.2-1.2     c0-0.7,0.6-1.2,1.5-1.2c0.4,0,0.8,0.1,1.1,0.2l-0.2,0.5c-0.2-0.1-0.5-0.2-0.9-0.2c-0.5,0-0.7,0.3-0.7,0.6c0,0.3,0.2,0.5,0.8,0.7     c0.7,0.3,1.2,0.6,1.2,1.3c0,0.8-0.7,1.2-1.7,1.2c-0.5,0-0.9-0.1-1.2-0.3L84.9,36.4z"></path>
		</g>
		<g>
			<path class="st0" d="M90.5,34.1c0-0.5,0-0.8,0-1.1h0.7l0,0.6h0c0.2-0.4,0.7-0.7,1.4-0.7c0.7,0,1.5,0.4,1.5,1.7v2.6h-0.8v-2.5     c0-0.6-0.2-1.2-1-1.2c-0.5,0-0.9,0.3-1,0.7c0,0.1-0.1,0.2-0.1,0.4v2.5h-0.8V34.1z"></path>
		</g>
		<g>
			<path class="st0" d="M97.9,37.1l-0.1-0.5h0c-0.2,0.3-0.7,0.6-1.3,0.6c-0.9,0-1.4-0.6-1.4-1.2c0-1,1-1.5,2.6-1.5v-0.1     c0-0.4-0.1-1-1-1c-0.4,0-0.8,0.1-1.1,0.3l-0.2-0.5c0.3-0.2,0.9-0.3,1.4-0.3c1.3,0,1.7,0.8,1.7,1.6v1.6c0,0.3,0,0.7,0.1,1H97.9z      M97.8,35C97,35,96,35.1,96,35.9c0,0.5,0.4,0.7,0.7,0.7c0.5,0,0.9-0.3,1-0.7c0-0.1,0-0.2,0-0.2V35z"></path>
		</g>
		<g>
			<path class="st0" d="M100.9,31.8V33h1.1v0.6h-1.1v2.3c0,0.5,0.2,0.8,0.6,0.8c0.2,0,0.3,0,0.4,0l0,0.6c-0.2,0.1-0.4,0.1-0.7,0.1     c-0.4,0-0.7-0.1-0.9-0.3c-0.2-0.2-0.3-0.6-0.3-1.1v-2.3h-0.7V33h0.7v-1L100.9,31.8z"></path>
		</g>
		<g>
			<path class="st0" d="M106.5,36c0,0.4,0,0.8,0,1.1h-0.7l0-0.6h0c-0.2,0.3-0.7,0.7-1.4,0.7c-0.8,0-1.5-0.4-1.5-1.8V33h0.8v2.4     c0,0.8,0.2,1.3,0.9,1.3c0.5,0,0.9-0.4,1-0.7c0-0.1,0.1-0.2,0.1-0.4V33h0.8V36z"></path>
		</g>
		<g>
			<path class="st0" d="M107.8,34.2c0-0.4,0-0.9,0-1.2h0.7l0,0.8h0c0.2-0.5,0.7-0.9,1.2-0.9c0.1,0,0.1,0,0.2,0v0.7     c-0.1,0-0.2,0-0.3,0c-0.6,0-1,0.4-1.1,0.9c0,0.1,0,0.2,0,0.4v2.2h-0.8V34.2z"></path>
		</g>
		<g>
			<path class="st0" d="M113.2,37.1l-0.1-0.5h0c-0.2,0.3-0.7,0.6-1.3,0.6c-0.9,0-1.4-0.6-1.4-1.2c0-1,1-1.5,2.6-1.5v-0.1     c0-0.4-0.1-1-1-1c-0.4,0-0.8,0.1-1.1,0.3l-0.2-0.5c0.3-0.2,0.9-0.3,1.4-0.3c1.3,0,1.7,0.8,1.7,1.6v1.6c0,0.3,0,0.7,0.1,1H113.2z      M113,35c-0.8,0-1.8,0.1-1.8,0.9c0,0.5,0.4,0.7,0.7,0.7c0.5,0,0.9-0.3,1-0.7c0-0.1,0-0.2,0-0.2V35z"></path>
		</g>
		<g>
			<path class="st0" d="M115.1,31.1h0.8v6.1h-0.8V31.1z"></path>
		</g>
		<g>
			<path class="st0" d="M123,31.1v5c0,0.3,0,0.8,0,1h-0.7l0-0.7h0c-0.2,0.4-0.7,0.7-1.4,0.7c-1,0-1.8-0.8-1.8-2.1     c0-1.4,0.9-2.2,1.9-2.2c0.6,0,1.1,0.3,1.3,0.6h0v-2.4H123z M122.1,34.6c0-0.1,0-0.2,0-0.3c-0.1-0.5-0.5-0.9-1.1-0.9     c-0.8,0-1.3,0.7-1.3,1.6c0,0.9,0.4,1.6,1.2,1.6c0.5,0,0.9-0.3,1.1-0.8c0-0.1,0-0.2,0-0.3V34.6z"></path>
		</g>
		<g>
			<path class="st0" d="M124.8,35.2c0,1.1,0.7,1.5,1.5,1.5c0.5,0,0.9-0.1,1.2-0.2l0.1,0.5c-0.3,0.1-0.8,0.2-1.4,0.2     c-1.4,0-2.2-0.8-2.2-2.1c0-1.3,0.8-2.2,2-2.2c1.4,0,1.8,1.1,1.8,1.9c0,0.2,0,0.3,0,0.4H124.8z M127,34.6c0-0.6-0.3-1.2-1-1.2     c-0.8,0-1.1,0.7-1.2,1.2H127z"></path>
		</g>
		<g>
			<path class="st0" d="M128.8,31.1h0.8v6.1h-0.8V31.1z"></path>
		</g>
		<g>
			<path class="st0" d="M132.9,31.4c0.4-0.1,1-0.1,1.5-0.1c0.8,0,1.4,0.1,1.8,0.5c0.3,0.3,0.5,0.7,0.5,1.1c0,0.8-0.5,1.3-1.2,1.5v0     c0.5,0.1,0.8,0.6,0.9,1.2c0.2,0.8,0.3,1.3,0.5,1.6h-0.9c-0.1-0.2-0.2-0.7-0.4-1.4c-0.2-0.8-0.5-1.1-1.3-1.1h-0.7v2.5h-0.8V31.4z      M133.8,34.1h0.7c0.9,0,1.4-0.4,1.4-1.1c0-0.7-0.5-1.1-1.4-1.1c-0.3,0-0.6,0-0.7,0.1V34.1z"></path>
		</g>
		<g>
			<path class="st0" d="M138.8,31.8c0,0.3-0.2,0.5-0.5,0.5c-0.3,0-0.5-0.2-0.5-0.5c0-0.3,0.2-0.5,0.5-0.5     C138.6,31.4,138.8,31.6,138.8,31.8z M137.9,37.1V33h0.8v4.2H137.9z"></path>
		</g>
		<g>
			<path class="st0" d="M140.1,34.3c0-0.6,0-1,0-1.3h0.7l0,0.7h0c0.3-0.5,0.8-0.7,1.5-0.7c1.1,0,1.8,0.8,1.8,2.1c0,1.5-1,2.2-2,2.2     c-0.6,0-1-0.2-1.3-0.6h0v2.2h-0.8V34.3z M140.9,35.5c0,0.1,0,0.2,0,0.3c0.2,0.5,0.6,0.8,1.1,0.8c0.8,0,1.3-0.7,1.3-1.6     c0-0.8-0.4-1.6-1.2-1.6c-0.5,0-1,0.4-1.1,0.9c0,0.1,0,0.2,0,0.3V35.5z"></path>
		</g>
		<g>
			<path class="st0" d="M149,35c0,1.6-1.1,2.2-2.1,2.2c-1.2,0-2.1-0.8-2.1-2.1c0-1.4,1-2.2,2.1-2.2C148.2,32.9,149,33.7,149,35z      M145.7,35.1c0,0.8,0.5,1.6,1.3,1.6c0.8,0,1.2-0.8,1.2-1.6c0-0.7-0.3-1.6-1.2-1.6C146,33.4,145.7,34.3,145.7,35.1z"></path>
		</g>
		<g>
			<path class="st0" d="M150,31.1h0.8v6.1H150V31.1z"></path>
		</g>
		<g>
			<path class="st0" d="M152.2,31.1h0.8v6.1h-0.8V31.1z"></path>
		</g>
		<g>
			<path class="st0" d="M154.9,35.2c0,1.1,0.7,1.5,1.5,1.5c0.5,0,0.9-0.1,1.2-0.2l0.1,0.5c-0.3,0.1-0.8,0.2-1.4,0.2     c-1.4,0-2.2-0.8-2.2-2.1c0-1.3,0.8-2.2,2-2.2c1.4,0,1.8,1.1,1.8,1.9c0,0.2,0,0.3,0,0.4H154.9z M155.8,31.2l0.8,1.2H156l-1.1-1.2     H155.8z M157.1,34.6c0-0.6-0.3-1.2-1-1.2c-0.8,0-1.1,0.7-1.2,1.2H157.1z"></path>
		</g>
		<g>
			<path class="st0" d="M158.8,36.4c0.2,0.1,0.6,0.3,1,0.3c0.6,0,0.9-0.3,0.9-0.6c0-0.3-0.2-0.5-0.8-0.8c-0.8-0.3-1.2-0.7-1.2-1.2     c0-0.7,0.6-1.2,1.5-1.2c0.4,0,0.8,0.1,1.1,0.2l-0.2,0.5c-0.2-0.1-0.5-0.2-0.9-0.2c-0.5,0-0.7,0.3-0.7,0.6c0,0.3,0.2,0.5,0.8,0.7     c0.7,0.3,1.2,0.6,1.2,1.3c0,0.8-0.7,1.2-1.7,1.2c-0.5,0-0.9-0.1-1.2-0.3L158.8,36.4z"></path>
		</g>
	</g>
	<g>
		<g>
			<path class="st0" d="M109.6,13.1 M109.6,13.1C109.6,13.1,109.6,13,109.6,13.1c0,0.6-0.1,1.5-0.2,2.4c0,0.6-0.3,1.5-0.7,2.1     c-0.4,0.5-1.1,0.8-1.8,1c-0.7,0.2-1.6,0.3-2.6,0.4c-0.3,0-0.7,0-1,0c-0.4,0-0.7,0-1.1,0c-0.2,0-0.4,0-0.5,0c-0.2,0-0.3,0-0.5,0     c-0.2,0-0.4,0-0.5,0c-0.2,0-0.3,0-0.5,0h-3.7c-1.8-0.1-3.2-0.3-4.3-0.7c-1-0.4-1.7-1-2-1.8c-0.3-0.8-0.6-1.6-0.7-2.4     c-0.2-0.9-0.3-1.7-0.3-2.7c0,0,0,0,0-0.1c0,0,0,0,0-0.1c0,0,0-0.1,0-0.1c0,0,0-0.1,0-0.1c0,0,0-0.1,0-0.1c0,0,0-0.1,0-0.1     c0,0,0-0.1,0-0.1c0,0,0,0,0-0.1c0,0,0-0.1,0-0.1c0-0.1,0-0.1,0-0.2c0-0.1,0-0.1,0-0.2V7.5c0-0.8,0.1-1.5,0.3-2.2     c0.2-0.7,0.5-1.2,1-1.8c0.4-0.5,1.1-0.9,2-1.2c0.9-0.3,2-0.5,3.4-0.6c0.2,0,0.4,0,0.6,0c0.2,0,0.4,0,0.6,0c0.2,0,0.4,0,0.6,0     c0.2,0,0.4,0,0.6,0c0.1,0,0.2,0,0.3,0c0.1,0,0.2,0,0.3,0c0.1,0,0.2,0,0.3,0c0.1,0,0.2,0,0.3,0c0.2,0,0.4,0,0.6,0     c0.2,0,0.4,0,0.6,0c1.8,0,3.2,0.1,4.4,0.2c1.2,0.2,2,0.4,2.6,0.7c0.5,0.3,1,0.9,1.3,1.6c0.3,0.8,0.3,1.9,0.3,3.2l-2.1-0.1     c0-0.6,0.1-1.4-0.1-1.8c-0.1-0.5-0.3-0.9-0.6-1.2c-0.2-0.3-1.3-0.5-1.9-0.7c-0.7-0.2-1.5-0.2-2.6-0.2c-0.2,0-0.5,0-0.7,0     s-0.5,0-0.7,0c-0.2,0-0.5,0-0.7,0c-0.2,0-0.5,0-0.7,0c-0.5,0-0.9,0-1.4,0c-0.5,0-0.9,0-1.4,0.1c-1,0.1-1.8,0.2-2.4,0.4     c-0.6,0.2-1.6,0.4-1.9,0.8c-0.3,0.3-0.4,0.7-0.5,1.2c-0.1,0.5-0.1,1.3-0.1,1.9l0,0v3.1l0,0c0,0.1,0-0.1,0,0s0,0.8,0,0.9     c0,0.1,0-0.1,0,0s0,0.6,0,0.7c0,0.1,0-0.1,0,0c0,0.1,0,0.4,0,0.5c0,0.1,0-0.1,0,0c0,0.1,0,0.8,0,0.9c0,0.3,0-0.3,0,0     c0,0.3,0.1,1,0.2,1.3c0.1,0.3,0.3,0.6,0.4,0.8c0.1,0.2,0.5,0.5,0.6,0.6c0.2,0.2,0.5,0.3,0.8,0.3c0.3,0,0.4,0.1,0.8,0.2     c0.3,0,0.7,0,1,0.1c0.4,0.1,0.9,0,1.3,0.1c0.1,0-0.1,0,0,0c0.1,0,0.6,0,0.7,0c0.1,0,0.3,0,0.4,0c0.1,0,0,0,0.1,0     c0.4,0,0.9,0,1.3,0c0.4,0,0.9,0,1.3,0c0.4,0,0.8,0,1.2,0c0.9,0,0.8,0,1.3,0c0.6,0,1.1-0.1,1.5-0.2c0.4-0.1,0.8-0.2,1.1-0.4     c0.3-0.1,0.6-0.4,0.8-0.6c0.3-0.4,0.2-0.2,0.4-0.6c0-0.1,0.1-0.3,0.1-0.4s0-0.3,0-0.4c0-0.1,0-0.3,0-0.4s0-0.3,0-0.4     c0-0.1,0,0.1,0,0c0-0.1,0-0.3,0-0.4c0,0,0-0.4,0-0.4 M110,14.3"></path>
		</g>
	</g>
	<g>
		<g>
			<path class="st0" d="M115.6,9L129.8,9l0,1.8h-14.2l-0.1,6l14.9,0.1l0,1.5l-17,0.2V1.8h16.9l0,1.7h-14.7L115.6,9z"></path>
		</g>
	</g>
	<g>
		<g>
			<path class="st0" d="M136.5,18.7h-1.9V1.8h1.9V18.7z"></path>
		</g>
	</g>
	<g>
		<g>
			<path class="st0" d="M162.3,18.7h-3.2L143.4,3.3l-0.1,15.2h-2V1.7h3.6L160.4,17l0-15.3h1.9V18.7z"></path>
		</g>
	</g>
	<g>
		<g>
			<path class="st0" d="M90,20.9l4,0.1c0.4,0,0.8,0,1.2,0.1c0.3,0.1,0.6,0.2,0.8,0.3c0.2,0.1,0.4,0.3,0.5,0.5     c0.1,0.2,0.2,0.5,0.2,0.8c0,0.2,0,0.4,0,0.5c0,0.2-0.1,0.3-0.1,0.4c-0.1,0.1-0.2,0.2-0.4,0.3C95.7,24,95.4,24,95,24.1     c0.3,0,0.5,0,0.6,0.1c0.2,0.1,0.4,0.1,0.5,0.2c0.1,0.1,0.2,0.2,0.2,0.3c0.1,0.1,0.1,0.4,0.1,0.5l0,1.3h-0.9l0-1     c0-0.2,0-0.5,0-0.7c0-0.1,0-0.2-0.2-0.3c-0.1-0.1-0.3-0.2-0.5-0.2c-0.2,0-0.8-0.1-1.1-0.1l-3,0l0,2.3H90L90,20.9z M93.6,23.8     C93.6,23.8,93.7,23.8,93.6,23.8c0.1,0,0.1,0,0.1,0c0.3,0,0.6,0,0.8-0.1c0.2,0,0.4-0.1,0.5-0.1c0.1-0.1,0.3-0.2,0.4-0.3     c0.2-0.3,0.2-0.3,0.2-0.5c0-0.2,0-0.3,0-0.5c0-0.2,0-0.3-0.2-0.4c-0.1-0.1-0.4-0.2-0.7-0.2c-0.2-0.1-0.5-0.1-0.9-0.1l-3.2,0v2.3     H93.6z"></path>
		</g>
	</g>
	<g>
		<rect x="1.7" y="28.6" class="st0" width="160.8" height="0.9"></rect>
	</g>
</g>
</svg>
